<!-- icon666.com - MILLIONS vector ICONS FREE --><svg id="Layer_1" enable-background="new 0 0 256 256" viewBox="0 0 256 256" xmlns="http://www.w3.org/2000/svg"><g><g><g><g><path d="m219.789 140.171c-2.332.003-4.57-.923-6.217-2.575l-85.595-85.596-85.596 85.596c-3.454 3.411-9.02 3.376-12.432-.078-3.381-3.424-3.381-8.93 0-12.353l91.811-91.812c3.433-3.433 8.999-3.433 12.433 0l91.811 91.812c3.435 3.431 3.438 8.997.007 12.432-1.65 1.652-3.889 2.58-6.224 2.578v-.004z" fill="#ffa91a"></path></g><g><path d="m226.014 127.597c-1.65 1.652-3.889 2.58-6.224 2.578v-.004c-2.332.003-4.57-.923-6.217-2.575l-85.595-85.596-85.595 85.596c-3.455 3.411-9.02 3.376-12.432-.078-.364-.369-.681-.765-.966-1.177-2.367 3.412-2.051 8.121.966 11.177 3.411 3.455 8.977 3.49 12.432.078l85.595-85.596 85.595 85.596c1.647 1.652 3.884 2.578 6.217 2.575v.004c2.335.001 4.574-.926 6.224-2.578 3.05-3.054 3.379-7.788 1.003-11.212-.295.424-.625.833-1.003 1.212z" fill="#f79219"></path></g><g><path d="m200.721 225.222v-100.478l-72.743-72.743-72.742 72.742v100.479z" fill="#f1f2f2"></path></g><g><path d="m61.24 204.86c-1.11 0-2.011-.9-2.011-2v-58c0-1.11.9-2 2.011-2 1.1 0 1.989.89 1.989 2v58c0 1.1-.889 2-1.989 2zm0-66c-1.11 0-2.011-.9-2.011-2 0-1.11.9-2 2.011-2 1.1 0 1.989.89 1.989 2 0 1.1-.889 2-1.989 2z" fill="#fff"></path></g><g><path d="m127.978 52.001 62.743 62.743v100.478h-135.485v10h145.485v-100.478z" fill="#e6e7e8" style="fill: rgb(222, 230, 237);"></path></g><g><path d="m127.978 52.001 67.743 67.743v100.478h-140.485v5h145.485v-100.478z" fill="#d1d3d4"></path></g></g></g><g><g><g><path d="m164.239 225.222h-72.478v-96.544c0-5.209 4.223-9.432 9.432-9.432h53.613c5.209 0 9.432 4.223 9.432 9.432v96.544z" fill="#ffa91a"></path></g></g><g><path d="m158.491 119.994c.481 1.132.748 2.377.748 3.685v96.544h-67.478v5h72.477v-96.544c.001-3.902-2.369-7.25-5.747-8.685z" fill="#f79219"></path></g><g><g><path d="m156.077 225.222h-56.154v-93.797c0-1.641 1.33-2.97 2.97-2.97h50.213c1.64 0 2.97 1.33 2.97 2.97v93.797z" fill="#8c3f0a"></path></g></g><g><path d="m153.106 128.455h-2.03v91.768h-51.153v5h56.153v-93.797c.001-1.642-1.329-2.971-2.97-2.971z" fill="#7c3108"></path></g><g><g><circle cx="144.092" cy="170.04" fill="#ffa91a" r="5.941"></circle></g></g></g></g></svg>